<?xml version="1.0" encoding="utf-8"?>
<!-- Generator: Adobe Illustrator 16.0.0, SVG Export Plug-In . SVG Version: 6.00 Build 0)  -->
<!DOCTYPE svg PUBLIC "-//W3C//DTD SVG 1.1//EN" "http://www.w3.org/Graphics/SVG/1.1/DTD/svg11.dtd">
<svg version="1.1"
	 id="svg3626" xmlns:svg="http://www.w3.org/2000/svg" xmlns:rdf="http://www.w3.org/1999/02/22-rdf-syntax-ns#" xmlns:cc="http://creativecommons.org/ns#" xmlns:dc="http://purl.org/dc/elements/1.1/"
	 xmlns="http://www.w3.org/2000/svg" xmlns:xlink="http://www.w3.org/1999/xlink" x="0px" y="0px" width="298px" height="242.188px"
	 viewBox="1 1 298 242.188" enable-background="new 1 1 298 242.188" xml:space="preserve">
<g id="layer1" transform="translate(-539.17946,-568.85777)">
	<path id="path3611" fill="#33C0D2" d="M633.898,812.045c112.461,0,173.956-93.168,173.956-173.956c0-2.646-0.054-5.281-0.173-7.903
		c11.938-8.631,22.314-19.4,30.498-31.66c-10.955,4.869-22.744,8.147-35.111,9.626c12.624-7.569,22.314-19.543,26.887-33.817
		c-11.812,7.003-24.896,12.093-38.824,14.84c-11.157-11.884-27.041-19.316-44.629-19.316c-33.764,0-61.144,27.381-61.144,61.133
		c0,4.798,0.536,9.464,1.585,13.94c-50.815-2.557-95.874-26.886-126.025-63.88c-5.251,9.035-8.279,19.531-8.279,30.729
		c0,21.212,10.793,39.938,27.208,50.894c-10.031-0.311-19.454-3.063-27.69-7.647c-0.009,0.257-0.009,0.507-0.009,0.781
		c0,29.609,21.075,54.332,49.051,59.935c-5.138,1.4-10.543,2.151-16.122,2.151c-3.934,0-7.766-0.388-11.491-1.103
		c7.784,24.293,30.354,41.971,57.115,42.465c-20.926,16.402-47.287,26.171-75.938,26.171c-4.929,0-9.798-0.28-14.584-0.846
		c27.059,17.344,59.189,27.464,93.722,27.464"/>
</g>
</svg>
