<?xml version="1.0" encoding="UTF-8" standalone="no"?>
<!-- Created with Inkscape (http://www.inkscape.org/) -->

<svg
   xmlns:dc="http://purl.org/dc/elements/1.1/"
   xmlns:cc="http://creativecommons.org/ns#"
   xmlns:rdf="http://www.w3.org/1999/02/22-rdf-syntax-ns#"
   xmlns:svg="http://www.w3.org/2000/svg"
   xmlns="http://www.w3.org/2000/svg"
   xmlns:sodipodi="http://sodipodi.sourceforge.net/DTD/sodipodi-0.dtd"
   xmlns:inkscape="http://www.inkscape.org/namespaces/inkscape"
   width="75.00309mm"
   height="39.843113mm"
   viewBox="0 0 265.75898 141.17638"
   id="svg3750"
   version="1.1"
   inkscape:version="0.91 r13725"
   sodipodi:docname="heek-logo.svg">
  <defs
     id="defs3752" />
  <sodipodi:namedview
     id="base"
     pagecolor="#ffffff"
     bordercolor="#666666"
     borderopacity="1.0"
     inkscape:pageopacity="0.0"
     inkscape:pageshadow="2"
     inkscape:zoom="0.35"
     inkscape:cx="362.1652"
     inkscape:cy="-377.98323"
     inkscape:document-units="px"
     inkscape:current-layer="layer1"
     showgrid="false"
     inkscape:window-width="1280"
     inkscape:window-height="668"
     inkscape:window-x="-8"
     inkscape:window-y="-8"
     inkscape:window-maximized="1"
     fit-margin-top="0"
     fit-margin-left="0"
     fit-margin-right="0"
     fit-margin-bottom="0" />
  <metadata
     id="metadata3755">
    <rdf:RDF>
      <cc:Work
         rdf:about="">
        <dc:format>image/svg+xml</dc:format>
        <dc:type
           rdf:resource="http://purl.org/dc/dcmitype/StillImage" />
        <dc:title></dc:title>
      </cc:Work>
    </rdf:RDF>
  </metadata>
  <g
     inkscape:label="Layer 1"
     inkscape:groupmode="layer"
     id="layer1"
     transform="translate(-12.834801,-13.202587)">
    <g
       id="g3360"
       transform="matrix(1.25,0,0,-1.25,197.92555,88.717967)">
      <path
         d="m 0,0 c -3.119,-2.88 -7.049,-4.27 -11.067,-3.918 -4.133,0.364 -7.916,2.546 -10.651,6.145 -1.433,1.886 -4.124,2.252 -6.006,0.818 -1.885,-1.432 -2.251,-4.121 -0.819,-6.005 4.216,-5.547 10.156,-8.919 16.725,-9.496 0.67,-0.06 1.338,-0.089 2.003,-0.089 5.736,0 11.223,2.179 15.63,6.246 1.739,1.606 1.847,4.318 0.242,6.057 C 4.451,1.497 1.74,1.606 0,0"
         style="fill:#F3306B;fill-opacity:1;fill-rule:nonzero;stroke:none"
         id="path3362"
         inkscape:connector-curvature="0" />
    </g>
    <g
       id="g3364"
       transform="matrix(1.25,0,0,-1.25,159.95155,71.213587)">
      <path
         d="m 0,0 c 6.171,10.445 10.144,16.355 20.033,16.355 4.42,0 8.206,-1.668 10.948,-4.821 1.894,-2.178 3.196,-4.965 3.814,-8.089 l -20.07,0 c -2.367,0 -4.286,-1.919 -4.286,-4.286 0,-2.368 1.919,-4.286 4.286,-4.286 l 24.767,0 c 2.367,0 4.286,1.918 4.286,4.286 0.001,6.912 -2.247,13.304 -6.328,17.999 -4.355,5.01 -10.541,7.769 -17.417,7.769 C 4.771,24.927 -1.406,14.471 -7.38,4.36 -8.516,2.437 -9.691,0.449 -10.937,-1.496 c -6.36,-9.927 -13.213,-16.54 -25.981,-16.54 -11.193,0 -19.01,7.07 -19.01,17.195 0,9.646 6.831,17.038 15.888,17.193 3.88,0.07 7.116,-1.136 9.594,-3.572 2.316,-2.276 3.864,-5.507 4.516,-9.335 l -18.735,0 c -2.368,0 -4.287,-1.919 -4.287,-4.286 0,-2.368 1.919,-4.286 4.287,-4.286 l 23.371,0 c 2.367,0 4.286,1.918 4.286,4.286 0,8.017 -2.638,15.025 -7.428,19.735 -4.121,4.05 -9.532,6.133 -15.751,6.029 C -54.048,24.685 -64.5,13.609 -64.5,-0.841 c 0,-14.689 11.858,-25.767 27.582,-25.767 17.688,0 26.708,10.357 33.199,20.488 C -2.39,-4.045 -1.174,-1.989 0,0"
         style="fill:#F3306B;fill-opacity:1;fill-rule:nonzero;stroke:none"
         id="path3366"
         inkscape:connector-curvature="0" />
    </g>
    <g
       id="g3368"
       transform="matrix(1.25,0,0,-1.25,39.008551,40.087587)">
      <path
         d="m 0,0 c -4.249,0 -8.285,-1.365 -12.367,-4.034 l 0,21.255 c 0,2.368 -1.919,4.287 -4.286,4.287 -2.367,0 -4.286,-1.919 -4.286,-4.287 l 0,-63.434 c 0,-2.368 1.919,-4.286 4.286,-4.286 2.367,0 4.286,1.918 4.286,4.286 l 0,31.807 c 3.479,3.63 7.604,6.315 12.617,6.315 8.243,0 14.824,-5.325 14.824,-15.267 l 0,-22.742 0,-0.039 c 0,-2.367 1.919,-4.286 4.286,-4.286 2.367,0 4.286,1.919 4.286,4.286 l 0,0.039 0,22.056 C 23.646,-10.129 14.818,0 0,0"
         style="fill:#F3306B;fill-opacity:1;fill-rule:nonzero;stroke:none"
         id="path3370"
         inkscape:connector-curvature="0" />
    </g>
    <g
       id="g3372"
       transform="matrix(1.25,0,0,-1.25,277.18218,93.948837)">
      <path
         d="m 0,0 -20.046,21.826 16.46,12.587 c 1.88,1.438 2.239,4.128 0.801,6.008 -1.437,1.88 -4.127,2.241 -6.008,0.801 L -31.052,24.2 l 0,36.11 c 0,2.368 -1.919,4.287 -4.286,4.287 -2.368,0 -4.286,-1.919 -4.286,-4.287 l 0,-63.434 c 0,-2.368 1.918,-4.286 4.286,-4.286 2.367,0 4.286,1.918 4.286,4.286 l 0,16.689 c 0.293,0.132 0.579,0.287 0.845,0.49 l 3.326,2.544 c 0.005,-0.005 0.007,-0.011 0.012,-0.016 L -6.314,-5.798 c 0.846,-0.921 2,-1.387 3.158,-1.387 1.036,0 2.075,0.373 2.898,1.129 C 1.486,-4.454 1.601,-1.743 0,0"
         style="fill:#F3306B;fill-opacity:1;fill-rule:nonzero;stroke:none"
         id="path3374"
         inkscape:connector-curvature="0" />
    </g>
    <g
       id="g3376"
       transform="matrix(1.25,0,0,-1.25,212.25293,113.82522)">
      <path
         d="m 0,0 c -2.245,0.742 -4.671,-0.485 -5.409,-2.734 -5.32,-16.186 -23.057,-24.95 -39.539,-19.534 -2.249,0.741 -4.671,-0.485 -5.409,-2.734 -0.739,-2.249 0.485,-4.672 2.734,-5.41 4.191,-1.377 8.445,-2.031 12.626,-2.031 16.743,0 32.295,10.489 37.731,27.034 C 3.473,-3.161 2.249,-0.739 0,0"
         style="fill:#F3306B;fill-opacity:1;fill-rule:nonzero;stroke:none"
         id="path3378"
         inkscape:connector-curvature="0" />
    </g>
  </g>
</svg>
